<svg width="36" height="29" viewBox="0 0 36 29" fill="none" xmlns="http://www.w3.org/2000/svg">
<path d="M1.425 15.45C0.975 14.55 0.625 13.6375 0.375 12.7125C0.125 11.7875 0 10.85 0 9.9C0 7.1 0.95 4.75 2.85 2.85C4.75 0.95 7.1 0 9.9 0C11.475 0 12.975 0.33125 14.4 0.99375C15.825 1.65625 17.025 2.575 18 3.75C18.975 2.575 20.175 1.65625 21.6 0.99375C23.025 0.33125 24.525 0 26.1 0C28.9 0 31.25 0.95 33.15 2.85C35.05 4.75 36 7.1 36 9.9C36 10.85 35.875 11.7875 35.625 12.7125C35.375 13.6375 35.025 14.55 34.575 15.45C34.3 14.975 33.975 14.55 33.6 14.175C33.225 13.8 32.7875 13.5 32.2875 13.275C32.5125 12.7 32.6875 12.1375 32.8125 11.5875C32.9375 11.0375 33 10.475 33 9.9C33 7.95 32.3375 6.3125 31.0125 4.9875C29.6875 3.6625 28.05 3 26.1 3C24.075 3 22.5187 3.55625 21.4312 4.66875C20.3438 5.78125 19.2 7.025 18 8.4C16.8 7 15.6562 5.75 14.5688 4.65C13.4813 3.55 11.925 3 9.9 3C7.95 3 6.3125 3.6625 4.9875 4.9875C3.6625 6.3125 3 7.95 3 9.9C3 10.475 3.0625 11.0375 3.1875 11.5875C3.3125 12.1375 3.4875 12.7 3.7125 13.275C3.2125 13.5 2.775 13.8 2.4 14.175C2.025 14.55 1.7 14.975 1.425 15.45ZM0 28.5V26.1375C0 25.0375 0.55625 24.1562 1.66875 23.4937C2.78125 22.8312 4.225 22.5 6 22.5C6.325 22.5 6.6375 22.5062 6.9375 22.5187C7.2375 22.5312 7.525 22.5625 7.8 22.6125C7.45 23.1125 7.1875 23.65 7.0125 24.225C6.8375 24.8 6.75 25.4125 6.75 26.0625V28.5H0ZM9 28.5V26.0625C9 24.4375 9.83125 23.125 11.4937 22.125C13.1562 21.125 15.325 20.625 18 20.625C20.7 20.625 22.875 21.125 24.525 22.125C26.175 23.125 27 24.4375 27 26.0625V28.5H9ZM29.25 28.5V26.0625C29.25 25.4125 29.1688 24.8 29.0063 24.225C28.8438 23.65 28.6 23.1125 28.275 22.6125C28.55 22.5625 28.8312 22.5312 29.1187 22.5187C29.4062 22.5062 29.7 22.5 30 22.5C31.8 22.5 33.25 22.8312 34.35 23.4937C35.45 24.1562 36 25.0375 36 26.1375V28.5H29.25ZM6 21C5.175 21 4.46875 20.7062 3.88125 20.1187C3.29375 19.5312 3 18.825 3 18C3 17.15 3.29375 16.4375 3.88125 15.8625C4.46875 15.2875 5.175 15 6 15C6.85 15 7.5625 15.2875 8.1375 15.8625C8.7125 16.4375 9 17.15 9 18C9 18.825 8.7125 19.5312 8.1375 20.1187C7.5625 20.7062 6.85 21 6 21ZM30 21C29.175 21 28.4688 20.7062 27.8813 20.1187C27.2938 19.5312 27 18.825 27 18C27 17.15 27.2938 16.4375 27.8813 15.8625C28.4688 15.2875 29.175 15 30 15C30.85 15 31.5625 15.2875 32.1375 15.8625C32.7125 16.4375 33 17.15 33 18C33 18.825 32.7125 19.5312 32.1375 20.1187C31.5625 20.7062 30.85 21 30 21ZM18 19.5C16.75 19.5 15.6875 19.0625 14.8125 18.1875C13.9375 17.3125 13.5 16.25 13.5 15C13.5 13.725 13.9375 12.6562 14.8125 11.7937C15.6875 10.9312 16.75 10.5 18 10.5C19.275 10.5 20.3438 10.9312 21.2062 11.7937C22.0687 12.6562 22.5 13.725 22.5 15C22.5 16.25 22.0687 17.3125 21.2062 18.1875C20.3438 19.0625 19.275 19.5 18 19.5Z" fill="#D9A441"/>
</svg>
